<svg xmlns="http://www.w3.org/2000/svg" viewBox="0 0 500 500"><title>17. Agree</title><g id="Layer_4" data-name="Layer 4"><rect x="239.13" y="239.21" width="27.87" height="21.96" fill="#3fe2fd"/><rect x="237.44" y="387.03" width="26.19" height="41.39" fill="#3fe2fd"/><rect x="238.56" y="36.49" width="24.78" height="23.65" fill="#3fe2fd"/><path d="M255.46,69.15s78.15,16.95,59.69,95.73C298.26,237,227.3,229.07,227.3,229.07s64.2,22.53,98-32.66S316.27,65.77,255.46,69.15Z" fill="#3fe2fd"/></g><g id="Layer_1" data-name="Layer 1"><path d="M270.75,60.54V48.31a20.75,20.75,0,0,0-41.5,0V60.54a93.17,93.17,0,0,0-3.89,180.67c-13.27,1.7-29,17.37-49,38.62-5.58,5.92-10.84,11.52-15.24,15.65-11.68,10.95-61.36,15.7-89.93,16.13a7,7,0,0,0,.11,14h.36c9.21-.14,79.78-1.86,99-19.91,4.72-4.42,10.14-10.18,15.87-16.27,8-8.56,17.16-18.25,25.31-25.15,7.83-6.62,12.3-8.54,14.56-9a47.12,47.12,0,0,1,.36,11.78,7,7,0,0,0,8.85,7.39c16.06-4.48,35.75-8.75,41.6-8.56a20.81,20.81,0,0,1,1.66,10.85c-.32,3-1.31,5.39-2.65,6.31a10,10,0,0,0-4.53,7.11c-.6,5,2.7,8.74,5.89,12.32,2.56,2.87,5.47,6.13,5.21,8.73-1,9.82-7.12,22.23-7.18,22.35a7,7,0,0,0,0,6.26l6.39,12.77c.42,2.06,1.54,9.2-1.71,14.61-2,3.28-5.3,5.44-10.17,6.6-9.81,2.34-21.71,5.32-35.36,8.88a86.41,86.41,0,0,1-33.51,2l-31.05-4.24a7.12,7.12,0,0,0-2.35.08L75.46,399.38l-1,.22a7,7,0,0,0,1.4,13.86,6.9,6.9,0,0,0,1.41-.15l92.31-18.91,29.86,4.08a100.52,100.52,0,0,0,29.85-.39v22.15a20.75,20.75,0,0,0,41.5,0V388l2.66-.64c8.67-2.06,15.06-6.48,19-13.14,6.72-11.32,3.41-24.46,3-25.92a6.71,6.71,0,0,0-.49-1.29l-5.25-10.49c2.22-5,6.18-15,7.08-24,.88-8.73-4.89-15.19-8.7-19.46l-1-1.08c4-4.36,6.15-11,5.91-18.7-.22-7.22-2.6-16.22-8.62-19.83-1.27-.76-3.75-2.23-13.65-1.14V242.19a93.17,93.17,0,0,0,0-181.65Zm-27,183.76c2.08.14,4.17.22,6.28.22s4.2-.08,6.28-.22v10.5c-3.67.78-7.83,1.75-12.56,2.95ZM250,230.52a79.16,79.16,0,1,1,79.16-79.16A79.25,79.25,0,0,1,250,230.52ZM250,42a6.29,6.29,0,0,1,6.28,6.28V58.42c-2.08-.14-4.17-.22-6.28-.22s-4.2.08-6.28.22V48.31A6.29,6.29,0,0,1,250,42Zm0,384.49a6.29,6.29,0,0,1-6.28-6.28V394.77c4.36-1.13,8.56-2.2,12.56-3.2v28.67A6.29,6.29,0,0,1,250,426.52Z" fill="#251ac7"/><path d="M296.52,125.82a7,7,0,0,0-10-9.74l-47.12,48.64-22-24.77a7,7,0,1,0-10.46,9.3l27,30.41A7,7,0,0,0,239,182h.15a6.94,6.94,0,0,0,5-2.13Z" fill="#251ac7"/></g></svg>